<svg width="24" height="24" viewBox="0 0 24 24" fill="none" xmlns="http://www.w3.org/2000/svg">
<path d="M7.22874 17.9688H17.9721V19.5312H7.22874V17.9688ZM1.98752 18.75L0.00767399 20.7656L1.08968 21.875L4.15921 18.75L1.08968 15.625L0 16.7266L1.98752 18.75ZM7.22874 10.1562H17.9721V11.7188H7.22874V10.1562ZM1.98752 10.9375L0.00767399 12.9531L1.08968 14.0625L4.15921 10.9375L1.08968 7.8125L0 8.91406L1.98752 10.9375ZM7.22874 2.34375H17.9721V3.90625H7.22874V2.34375ZM1.98752 3.125L0.00767399 5.14062L1.08968 6.25L4.15921 3.125L1.08968 0L0 1.10156L1.98752 3.125Z" fill="#F8F8F8"/>
</svg>
