<svg width="24" height="24" viewBox="0 0 24 24" fill="none" xmlns="http://www.w3.org/2000/svg">
<path d="M21 6V11C21 12.1819 20.7672 13.3522 20.3149 14.4442C19.8626 15.5361 19.1997 16.5282 18.364 17.364C17.5282 18.1997 16.5361 18.8626 15.4442 19.3149C14.3522 19.7672 13.1819 20 12 20C10.8181 20 9.64778 19.7672 8.55585 19.3149C7.46392 18.8626 6.47177 18.1997 5.63604 17.364C4.80031 16.5282 4.13738 15.5361 3.68508 14.4442C3.23279 13.3522 3 12.1819 3 11V6C3 5.46957 3.21071 4.96086 3.58579 4.58579C3.96086 4.21071 4.46957 4 5 4H19C19.5304 4 20.0391 4.21071 20.4142 4.58579C20.7893 4.96086 21 5.46957 21 6Z" stroke="#F8F8F8" stroke-width="1.5" stroke-linecap="round" stroke-linejoin="round"/>
<path d="M8 10L12 14L16 10" stroke="#F8F8F8" stroke-width="1.5" stroke-linecap="round" stroke-linejoin="round"/>
</svg>
