<svg width="25" height="25" viewBox="0 0 25 25" fill="none" xmlns="http://www.w3.org/2000/svg">
<path d="M20 7.5001H4.375V6.8751L18.125 5.7751V6.8751H20V5.0001C20 3.6251 18.8862 2.6601 17.5262 2.85385L4.975 4.64635C3.61375 4.84135 2.5 6.1251 2.5 7.5001V20.0001C2.5 20.6631 2.76339 21.299 3.23223 21.7679C3.70107 22.2367 4.33696 22.5001 5 22.5001H20C20.663 22.5001 21.2989 22.2367 21.7678 21.7679C22.2366 21.299 22.5 20.6631 22.5 20.0001V10.0001C22.5 9.33706 22.2366 8.70118 21.7678 8.23234C21.2989 7.7635 20.663 7.5001 20 7.5001ZM18.125 16.2576C17.8787 16.2575 17.6348 16.2089 17.4073 16.1146C17.1797 16.0203 16.973 15.882 16.7989 15.7078C16.6248 15.5336 16.4867 15.3268 16.3925 15.0992C16.2984 14.8716 16.2499 14.6277 16.25 14.3814C16.2501 14.135 16.2987 13.8912 16.393 13.6636C16.4873 13.4361 16.6256 13.2294 16.7998 13.0553C16.974 12.8812 17.1808 12.7431 17.4084 12.6489C17.636 12.5547 17.8799 12.5063 18.1263 12.5064C18.6237 12.5065 19.1007 12.7043 19.4523 13.0562C19.804 13.408 20.0014 13.8852 20.0012 14.3826C20.0011 14.8801 19.8033 15.3571 19.4515 15.7087C19.0996 16.0603 18.6224 16.2578 18.125 16.2576Z" fill="white"/>
</svg>
